HIERARCHY
ROOT Hips
{
	OFFSET -3.958830 18.904000 13.208200
	CHANNELS 6 Xposition Yposition Zposition Zrotation Yrotation Xrotation 
	JOINT LHipJoint
	{
		OFFSET 0.000000 0.000000 0.000000
		CHANNELS 3 Zrotation Yrotation Xrotation
		JOINT LeftUpLeg
		{
			OFFSET 1.800000 -1.400000 0.085000
			CHANNELS 3 Zrotation Yrotation Xrotation
			JOINT LeftLeg
			{
				OFFSET 2.215000 -6.000000 0.000000
				CHANNELS 3 Zrotation Yrotation Xrotation
				JOINT LeftFoot
				{
					OFFSET 2.500000 -6.900000 0.000000
					CHANNELS 3 Zrotation Yrotation Xrotation
					JOINT LeftToeBase
					{
						OFFSET 0.200000 -0.500000 1.950000
						CHANNELS 3 Zrotation Yrotation Xrotation
						End Site
						{
							OFFSET 0.000000 0.000000 0.000000
						}
					}
				}
			}
		}
	}
	JOINT RHipJoint
	{
		OFFSET 0.000000 0.000000 0.000000
		CHANNELS 3 Zrotation Yrotation Xrotation
		JOINT RightUpLeg
		{
			OFFSET -1.800000 -1.400000 0.085000
			CHANNELS 3 Zrotation Yrotation Xrotation
			JOINT RightLeg
			{
				OFFSET -2.215000 -6.000000 0.000000
				CHANNELS 3 Zrotation Yrotation Xrotation
				JOINT RightFoot
				{
					OFFSET -2.500000 -6.900000 0.000000
					CHANNELS 3 Zrotation Yrotation Xrotation
					JOINT RightToeBase
					{
						OFFSET -0.200000 -0.500000 1.950000
						CHANNELS 3 Zrotation Yrotation Xrotation
						End Site
						{
							OFFSET 0.000000 0.000000 0.000000
						}
					}
				}
			}
		}
	}
	JOINT LowerBack
	{
		OFFSET 0.000000 0.000000 0.000000
		CHANNELS 3 Zrotation Yrotation Xrotation
		JOINT Spine
		{
			OFFSET -0.087000 1.940000 -0.288900
			CHANNELS 3 Zrotation Yrotation Xrotation
			JOINT Spine1
			{
				OFFSET 0.000000 1.950000 0.060000
				CHANNELS 3 Zrotation Yrotation Xrotation
				JOINT Neck
				{
					OFFSET 0.000000 0.000000 0.000000
					CHANNELS 3 Zrotation Yrotation Xrotation
					JOINT Neck1
					{
						OFFSET 0.000000 1.600000 0.340000
						CHANNELS 3 Zrotation Yrotation Xrotation
						JOINT Head
						{
							OFFSET 0.000000 1.667000 -0.240000
							CHANNELS 3 Zrotation Yrotation Xrotation
							End Site
							{
								OFFSET 0.000000 0.000000 0.000000
							}
						}
					}
				}
				JOINT LeftShoulder
				{
					OFFSET 0.000000 0.000000 0.000000
					CHANNELS 3 Zrotation Yrotation Xrotation
					JOINT LeftArm
					{
						OFFSET 2.700000 1.550000 -0.730000
						CHANNELS 3 Zrotation Yrotation Xrotation
						JOINT LeftForeArm
						{
							OFFSET 5.450000 0.000000 0.000000
							CHANNELS 3 Zrotation Yrotation Xrotation
							JOINT LeftHand
							{
								OFFSET 3.450000 0.000000 0.000000
								CHANNELS 3 Zrotation Yrotation Xrotation
								JOINT LeftHandIndex1
								{
									OFFSET 0.750000 0.000000 0.000000
									CHANNELS 3 Zrotation Yrotation Xrotation
									End Site
									{
										OFFSET 0.000000 0.000000 0.000000
									}
								}
							}
						}
					}
				}
				JOINT RightShoulder
				{
					OFFSET 0.000000 0.000000 0.000000
					CHANNELS 3 Zrotation Yrotation Xrotation
					JOINT RightArm
					{
						OFFSET -2.700000 1.550000 -0.730000
						CHANNELS 3 Zrotation Yrotation Xrotation
						JOINT RightForeArm
						{
							OFFSET -5.450000 0.000000 0.000000
							CHANNELS 3 Zrotation Yrotation Xrotation
							JOINT RightHand
							{
								OFFSET -3.450000 0.000000 0.000000
								CHANNELS 3 Zrotation Yrotation Xrotation
								JOINT RightHandIndex1
								{
									OFFSET -0.750000 0.000000 0.000000
									CHANNELS 3 Zrotation Yrotation Xrotation
									End Site
									{
										OFFSET 0.000000 0.000000 0.000000
									}
								}
							}
						}
					}
				}
			}
		}
	}
}
MOTION
Frames: 12
Frame Time: 0.016667
0.882340 16.947860 -3.250830 -4.631619 12.114086 10.931601 -15.228945 12.380790 2.623865 14.564532 -2.456684 -28.493907 1.192994 5.183787 20.645818 -0.651168 4.147038 3.040594 0.187760 0.220330 -0.133480 18.359841 -9.969668 3.954343 -21.311221 3.345815 -31.808099 26.687702 -14.308503 26.010138 -0.419460 -6.832090 1.790013 0.425730 0.601700 0.148860 -3.754901 -1.036843 -7.784279 5.263729 2.242417 10.060836 -0.927369 2.396732 10.449973 1.440195 0.738287 -7.250423 -0.295419 -2.164267 32.351374 0.735070 -4.504480 -4.575470 12.240095 0.752702 0.577800 9.491518 -14.225808 8.036771 156.650164 -66.008462 -143.037014 -4.205957 3.736163 -0.110610 0.443010 -0.318880 0.201900 -14.665201 0.429044 2.291725 -13.193487 11.486823 7.436155 -174.352521 53.615544 -168.140280 2.025112 -2.429668 -0.239710 0.382130 0.167150 0.069570 
0.866890 16.910580 -3.286950 -3.568553 12.777666 12.681662 -15.267749 12.378631 2.902436 14.389896 -2.909394 -29.079408 -1.575960 5.499056 18.441780 -0.667217 4.050515 3.071930 0.215000 0.250210 -0.101560 18.304951 -10.009721 3.662718 -21.236172 2.743587 -31.616600 21.816842 -11.176212 22.148527 -0.178728 -5.655440 2.176772 0.436820 0.571120 0.143350 -3.623835 -1.213796 -7.696254 4.012837 1.822942 9.130529 -0.388201 1.817424 10.480206 1.152739 0.460058 -7.628809 -0.711557 -1.763159 31.217780 0.893310 -4.051670 -5.951480 12.259769 -0.338117 0.982391 5.234538 -14.417080 7.840792 171.461190 -67.725712 -165.872534 -4.055473 3.802250 -0.081340 0.415220 -0.289080 0.203110 -14.100984 1.593737 2.667908 -8.988059 12.352236 7.381267 -178.697441 54.121833 -178.328699 1.919284 -2.421373 -0.236890 0.387690 0.148000 0.059120 
0.852660 16.866910 -3.327410 -2.312329 13.542965 14.341660 -15.296030 12.332836 3.163382 13.646358 -3.479043 -30.006841 -3.711733 5.630602 16.883052 -0.687034 3.977173 3.093893 0.243480 0.279640 -0.056050 18.267156 -10.045367 3.415883 -21.170476 2.316570 -31.177532 17.480314 -8.609140 18.246805 -0.018779 -4.664229 2.513716 0.450940 0.535400 0.153370 -3.532905 -1.300410 -7.634395 3.120206 1.576600 8.766651 -0.334515 1.490911 10.236942 1.102100 0.327260 -7.871613 -0.653644 -1.729781 29.041713 0.039160 -3.366070 -7.441360 10.810718 -1.444183 0.978081 1.714786 -15.021159 7.345540 -178.608277 -68.865001 178.913091 -3.966919 3.766215 -0.061460 0.403910 -0.260530 0.194750 -12.587948 2.746070 3.258584 -4.023756 12.758151 7.010087 -179.913321 54.658303 177.318301 1.830186 -2.396059 -0.229590 0.379940 0.130980 0.039590 
0.846730 16.825530 -3.379140 -1.171507 14.421907 15.536302 -15.292874 12.267231 3.358553 12.499256 -4.071595 -30.880772 -5.036538 5.592713 15.926665 -0.703714 3.870362 3.126934 0.247990 0.277020 -0.026120 18.260869 -10.093208 3.259793 -21.276366 1.986125 -30.539722 14.513700 -7.112734 15.530889 0.046738 -4.074442 2.717164 0.439030 0.493110 0.156110 -3.539443 -1.291782 -7.636903 3.246452 1.344556 9.025832 -1.226544 1.303536 9.860134 1.144928 0.127573 -8.276267 -0.743578 -2.130217 27.252132 -0.487870 -3.261690 -9.077840 9.300382 -3.392704 0.803302 -1.246779 -16.307800 6.129654 -170.000749 -71.742153 166.605623 -3.871491 3.657983 -0.022280 0.375010 -0.227650 0.175940 -11.277636 4.777945 4.267028 1.090459 12.933776 6.239833 178.774870 55.604184 172.778952 1.761976 -2.324724 -0.226950 0.372550 0.128500 0.019170 
0.836160 16.798340 -3.430240 -0.541204 15.039314 16.277012 -15.282170 12.208824 3.485436 11.871032 -4.437805 -31.467978 -5.885191 5.555403 15.310518 -0.686908 3.794640 3.148332 0.244540 0.264910 -0.013080 18.260556 -10.119989 3.167061 -21.020832 1.898368 -29.492203 12.644834 -5.943859 12.650731 0.076298 -3.642715 2.877803 0.412380 0.456150 0.154680 -3.566645 -1.258981 -7.662395 3.761938 1.269347 9.351991 -1.826277 1.306108 9.348402 1.102501 -0.127973 -8.647452 -0.980853 -2.477099 26.039573 -0.322530 -3.367580 -10.114120 7.707512 -6.314172 0.901070 -5.141970 -18.095881 4.412217 -159.638500 -76.669614 154.541293 -3.765849 3.463092 0.008980 0.339100 -0.199340 0.164580 -9.691232 7.807296 4.866600 6.565550 13.616518 4.255404 172.179348 60.793942 160.731126 1.697136 -2.158968 -0.216090 0.357500 0.123210 0.011390 
0.823420 16.807990 -3.480780 -0.311930 15.055641 16.178368 -15.264146 12.301959 3.521743 11.306531 -4.488202 -30.977140 -5.991486 5.247178 14.007415 -0.665572 3.604228 3.216225 0.217500 0.225590 -0.024670 18.242661 -10.225756 3.052687 -19.963539 1.917553 -28.511307 10.281732 -5.038616 11.088731 0.102822 -3.254264 3.037626 0.361620 0.422740 0.144070 -3.586004 -1.316575 -7.666777 4.386496 1.084755 10.169620 -2.296780 1.357519 8.946674 1.051934 -0.707215 -9.127704 -1.949018 -2.159840 25.941651 0.416480 -3.309810 -10.680510 6.092954 -9.365934 1.326534 -10.612563 -18.900016 2.062413 -131.642686 -80.783895 124.677068 -3.652073 2.666671 0.049570 0.292690 -0.172810 0.153050 -8.039494 11.260695 5.328533 11.215094 13.917087 1.310177 160.599566 66.743930 144.904260 1.680961 -1.825574 -0.209190 0.340360 0.126780 0.008350 
0.809060 16.838920 -3.528070 -0.560395 14.843546 15.851901 -15.225067 12.332695 3.482817 11.044926 -4.396426 -30.314893 -5.341325 4.826284 12.834390 -0.664641 3.386574 3.294907 0.209610 0.210910 -0.012260 18.248227 -10.373477 3.020551 -18.735036 1.995261 -27.735899 8.685946 -4.395778 9.645504 0.100316 -2.993054 3.146013 0.328300 0.387000 0.148670 -3.663631 -1.117880 -7.695045 5.339176 1.094515 10.643428 -2.756153 1.633053 9.662697 1.423914 -0.894976 -10.213056 -2.027244 -1.974780 25.549649 0.322060 -2.860490 -11.358690 4.670078 -11.308590 3.940571 -14.701525 -21.191645 5.036078 -61.171692 -89.270826 54.944695 -3.953839 3.340692 0.080400 0.262450 -0.139980 0.141760 -7.298446 13.247535 5.187631 16.518944 14.404219 -1.743562 144.461460 71.440300 125.940648 1.705065 -1.222902 -0.194710 0.320620 0.121610 0.000600 
0.789280 16.875630 -3.555420 -1.031579 14.181505 15.380867 -15.218255 12.469724 3.403274 10.967560 -4.111736 -29.381617 -4.351876 4.403987 11.560206 -0.662757 3.198415 3.364147 0.198430 0.195240 -0.006690 18.234811 -10.419615 2.963233 -17.188566 2.154248 -26.817203 7.142200 -3.781918 8.211523 0.106581 -2.737843 3.259630 0.300190 0.359030 0.142980 -3.659677 -1.226461 -7.612293 6.104412 0.633564 10.743859 -3.338292 1.341043 9.525140 1.598408 -1.246483 -10.490417 -2.688142 -1.658922 25.684832 0.415690 -2.601870 -11.929720 3.680279 -13.715102 4.452132 -20.483667 -20.025273 1.653437 -25.251928 -82.567182 19.312887 -3.691231 3.539906 0.109620 0.232990 -0.115010 0.130170 -6.734514 15.568035 5.277095 21.940898 17.888468 -2.477443 108.641763 77.660109 85.758288 2.857524 2.224056 -0.188450 0.313360 0.121190 -0.005600 
0.767750 16.921800 -3.581620 -1.386846 13.369387 14.998909 -15.190617 12.567242 3.332675 10.653422 -3.890473 -28.233463 -3.300932 3.916131 9.899338 -0.656279 2.988435 3.440241 0.188240 0.181030 -0.007930 18.232788 -10.432928 3.013145 -16.197233 2.296026 -26.039547 6.657126 -3.370277 6.490825 0.104143 -2.610278 3.320865 0.274510 0.333210 0.143710 -3.700917 -1.314192 -7.665734 6.550228 0.399312 10.487055 -3.388192 1.281684 10.946530 1.471364 -1.517318 -11.874895 -3.197852 -0.937707 25.774921 0.673360 -1.991510 -12.088730 2.660580 -15.940365 4.846089 -25.810751 -20.252109 -0.399301 -9.126398 -76.531079 4.868266 -3.586789 3.377079 0.131800 0.208810 -0.094790 0.120530 -5.392632 18.234247 7.978415 26.152334 20.108390 0.757490 54.374002 84.996226 40.195625 2.062571 -1.818153 -0.178620 0.293140 0.121820 -0.010370 
0.755290 16.953790 -3.586520 -1.633327 12.248067 14.899321 -15.168796 12.564286 3.218854 10.293232 -3.692379 -26.772974 -2.490921 3.476842 7.962514 -0.646110 2.843475 3.520794 0.173590 0.165140 -0.027680 18.252648 -10.458489 3.048374 -15.258818 2.383532 -25.423519 6.011639 -2.969527 4.742990 0.113409 -2.553630 3.368377 0.263220 0.354430 0.144010 -3.742343 -1.188704 -7.618606 6.471930 0.558620 9.205087 -3.143068 1.368462 11.513784 1.397581 -1.623888 -12.354523 -3.229245 -0.409458 25.514736 0.767340 -1.625550 -10.935540 1.948402 -18.061183 6.023082 -31.736251 -20.811240 -1.213012 1.024619 -70.668010 -2.767490 -3.564809 3.243378 0.108860 0.225800 -0.113700 0.130010 -4.436406 20.465115 7.865687 32.564299 21.173262 -2.652189 27.126801 77.610288 16.143802 1.773153 -1.942602 -0.177420 0.284860 0.121760 -0.000800 
0.746470 16.993680 -3.582980 -1.599478 11.109776 14.771633 -15.157074 12.586455 3.127450 9.835039 -3.553608 -25.324242 -1.885962 3.174039 6.472308 -0.630121 2.768833 3.574887 0.135530 0.120780 -0.052540 18.264117 -10.453946 3.072406 -14.677104 2.363685 -24.710784 5.368084 -2.666218 3.131333 0.120295 -2.530044 3.403642 0.232790 0.374040 0.137670 -3.758049 -1.180164 -7.578984 6.305981 0.657850 7.922057 -3.249338 1.432872 12.103056 1.300592 -1.839244 -13.024968 -3.588007 0.036983 25.541030 0.770600 -1.311580 -9.910420 1.245431 -19.679267 6.916815 -37.499345 -21.773325 -1.394624 8.160848 -63.541551 -6.807953 -3.569702 3.111124 0.099300 0.237110 -0.130550 0.125320 -3.463906 22.192292 8.566596 39.721831 22.339459 -3.793144 13.251091 71.658891 5.028638 1.738889 -1.762234 -0.185760 0.283310 0.135920 0.003060 
0.742560 17.037070 -3.568260 -1.503167 10.480324 14.342305 -15.141300 12.597804 3.029809 9.274220 -3.402052 -23.749640 -1.149092 2.893983 5.159059 -0.589278 2.697380 3.625193 0.093120 0.072550 -0.071720 18.278453 -10.472923 3.097347 -14.135399 2.243417 -23.212144 4.455164 -2.349050 1.021399 0.109768 -2.583313 3.413173 0.190840 0.377490 0.139380 -3.793068 -1.123035 -7.553670 6.354933 0.743279 6.699962 -3.788739 1.527381 12.423209 1.421422 -1.501057 -13.610890 -3.080711 0.103672 26.011566 0.225630 -0.823650 -8.207160 -0.430690 -21.535880 7.606197 -40.808533 -22.452322 -1.098954 11.010408 -56.449231 -7.428196 -3.604553 3.060636 0.077630 0.249850 -0.141550 0.117000 -2.031157 23.700809 9.344195 46.116651 23.197112 -4.066899 3.352969 65.087608 -1.603117 1.764754 -1.617992 -0.179460 0.254450 0.141040 0.006310 
